<svg height="512" viewBox="0 0 60 60" width="512" xmlns="http://www.w3.org/2000/svg"><g id="Page-1" fill="none" fill-rule="evenodd"><g id="011---Toilet-Clean" fill="rgb(0,0,0)" fill-rule="nonzero"><path id="Shape" d="m5 18h4v9.147c-1.14283863 1.2458916-2.1156304 2.6376597-2.893 4.139-3.425 6.621-2.642 14.566 2.093 21.253.67056543.93952 1.64352703 1.6201694 2.756 1.928 3.0806537 3.4252511 7.4383972 5.4271935 12.044 5.533 4.5002447-.0992318 8.7672511-2.0217847 11.823-5.327 1.1414957-.2986912 2.1441081-.9839452 2.837-1.939 4.839-6.7 5.689-14.693 2.273-21.371-.7839332-1.5318702-1.7704533-2.9512751-2.933-4.22v-9.143h4c2.7600532-.0033061 4.9966939-2.2399468 5-5v-8c-.0033061-2.76005315-2.2399468-4.99669388-5-5h-36c-2.76005315.00330612-4.99669388 2.23994685-5 5v8c.00330612 2.7600532 2.23994685 4.9966939 5 5zm8.851 36.44c.5170534-.1502161 1.0066222-.3825081 1.45-.688.1492449-.1158674.2921198-.2397146.428-.371 2.0673159 1.6531152 4.6243842 2.5741662 7.271 2.619 2.5795865-.0370117 5.0766402-.9147724 7.112-2.5.1383355.1364225.2842325.2649587.437.385.4269923.3083801.8992873.5485758 1.4.712-2.4963597 2.1407332-5.6609786 3.3441301-8.949 3.403-3.375273-.0645078-6.6178179-1.326226-9.149-3.56zm9.149-23.253c1.5481659.0010329 3.0686606.4104765 4.408 1.187.3869622.6321235.5918267 1.3588388.592 2.1-.1395369 2.6264277-2.3726938 4.6478813-5 4.526-2.6261971.1219179-4.8588776-1.8977648-5-4.523.0061693-.7399121.2094839-1.4648028.589-2.1 1.3401846-.7774662 2.8616311-1.1879221 4.411-1.19zm-6.991 3.462c.2360726 3.6560088 3.3291813 6.4659549 6.991 6.351 3.6618187.1149549 6.7549274-2.6949912 6.991-6.351.3312176.4230343.6234128.8752172.873 1.351 1.663 3.253 1.13 7.179-1.464 10.771-1.0976599 1.4844852-1.2791708 3.4560561-.471 5.116-1.6933802 1.3314115-3.7752541 2.0733578-5.929 2.113-2.2120064-.0467307-4.3460623-.8257244-6.068-2.215.8310174-1.6549816.6697884-3.6352438-.418-5.134-2.53-3.57-3.025-7.465-1.359-10.685.2451924-.4633718.5309775-.9040966.854-1.317zm20.03 16.914c-1.0237398 1.3459245-2.9225538 1.653674-4.319.7-1.3853718-.9997216-1.6986881-2.9328829-.7-4.319 3.048-4.223 3.64-8.907 1.623-12.852-1.3639741-2.6691945-3.7729459-4.6539259-6.6537974-5.4820073-2.8808516-.8280814-5.9760447-.4254851-8.5492026 1.1120073-.025.012-.049.025-.074.039-1.6974978 1.0355824-3.077218 2.5184011-3.988 4.286-2.021 3.908-1.473 8.558 1.5 12.761.6386122.901917.7475473 2.0760182.2857704 3.0800311s-1.4241109 1.6854041-2.5245 1.7875c-1.1003891.102096-2.1716582-.3906141-2.8102704-1.2925311-4.295-6.065-5.024-13.234-1.95-19.178 2.9273937-5.6662949 8.7777633-9.2196725 15.1555623-9.2051339s12.2119076 3.5945516 15.1134377 9.2741339c3.071 5.996 2.281 13.207-2.109 19.289zm-1.039-26.311c-6.9952835-5.6701788-17.0047165-5.6701788-24 0v-7.252h24zm-33-20.252c0-1.65685425 1.34314575-3 3-3h36c1.6568542 0 3 1.34314575 3 3v8c0 1.6568542-1.3431458 3-3 3h-36c-1.65685425 0-3-1.3431458-3-3z"/><path id="Shape" d="m23 14c2.7614237 0 5-2.2385763 5-5 0-2.76142375-2.2385763-5-5-5s-5 2.23857625-5 5c.0033061 2.7600532 2.2399468 4.9966939 5 5zm0-2c-1.2667854-.0052514-2.3937454-.8056491-2.816-2h5.632c-.4222546 1.1943509-1.5492146 1.9947486-2.816 2zm0-6c1.2667854.00525139 2.3937454.80564913 2.816 2h-5.632c.4222546-1.19435087 1.5492146-1.99474861 2.816-2z"/><path id="Shape" d="m59 22c.5522847 0 1-.4477153 1-1s-.4477153-1-1-1h-1.3c-.8935021-2.952905-3.6148754-4.9726865-6.7-4.9726865s-5.8064979 2.0197815-6.7 4.9726865h-1.3c-.5522847 0-1 .4477153-1 1s.4477153 1 1 1h1v2h-1c-.5522847 0-1 .4477153-1 1s.4477153 1 1 1h1v2h-1c-.5522847 0-1 .4477153-1 1s.4477153 1 1 1h1v2h-1c-.5522847 0-1 .4477153-1 1s.4477153 1 1 1h1c0 2.209139 1.790861 4 4 4v19c0 1.6568542 1.3431458 3 3 3s3-1.3431458 3-3v-19c2.209139 0 4-1.790861 4-4h1c.5522847 0 1-.4477153 1-1s-.4477153-1-1-1h-1v-2h1c.5522847 0 1-.4477153 1-1s-.4477153-1-1-1h-1v-2h1c.5522847 0 1-.4477153 1-1s-.4477153-1-1-1h-1v-2zm-7 35c0 .5522847-.4477153 1-1 1s-1-.4477153-1-1v-19h2zm4-33h-2c-.5522847 0-1 .4477153-1 1s.4477153 1 1 1h2v2h-2c-.5522847 0-1 .4477153-1 1s.4477153 1 1 1h2v2h-2c-.5522847 0-1 .4477153-1 1s.4477153 1 1 1h2c0 1.1045695-.8954305 2-2 2h-6c-1.1045695 0-2-.8954305-2-2h2c.5522847 0 1-.4477153 1-1s-.4477153-1-1-1h-2v-2h2c.5522847 0 1-.4477153 1-1s-.4477153-1-1-1h-2v-2h2c.5522847 0 1-.4477153 1-1s-.4477153-1-1-1h-2v-2h2c.5522847 0 1-.4477153 1-1s-.4477153-1-1-1h-1.576c.7922291-1.8216773 2.5895119-2.9999437 4.576-2.9999437s3.7837709 1.1782664 4.576 2.9999437h-1.576c-.5522847 0-1 .4477153-1 1s.4477153 1 1 1h2z"/></g></g></svg>