<?xml version="1.0"?>
<svg xmlns="http://www.w3.org/2000/svg" width="512" height="512" viewBox="0 0 128 128"><g><path d="M64,15a49,49,0,1,0,49,49A49.056,49.056,0,0,0,64,15ZM82.414,105.59a19.425,19.425,0,0,0-36.825,0,45.432,45.432,0,0,1-6.757-3.712,21.692,21.692,0,0,0,3.357-11.6A21.94,21.94,0,0,0,20.275,68.361H18.714C18.576,66.924,18.5,65.47,18.5,64a45.7,45.7,0,0,1,.409-6.012H109.09A45.525,45.525,0,0,1,109.5,64c0,1.473-.077,2.927-.214,4.364h-1.561A21.94,21.94,0,0,0,85.81,90.276a21.7,21.7,0,0,0,3.357,11.6A45.475,45.475,0,0,1,82.414,105.59ZM64,18.5a45.573,45.573,0,0,1,44.492,35.988H19.508A45.573,45.573,0,0,1,64,18.5ZM19.194,71.861h1.081A18.435,18.435,0,0,1,38.689,90.276,18.219,18.219,0,0,1,36,99.822,45.526,45.526,0,0,1,19.194,71.861Zm29.648,35.03a15.923,15.923,0,0,1,30.31,0,45.386,45.386,0,0,1-30.31,0ZM92,99.822a18.22,18.22,0,0,1-2.69-9.546,18.436,18.436,0,0,1,18.415-18.415h1.081A45.526,45.526,0,0,1,92,99.822Z"/><path d="M64,0a64,64,0,1,0,64,64A64.073,64.073,0,0,0,64,0Zm0,124.5A60.5,60.5,0,1,1,124.5,64,60.569,60.569,0,0,1,64,124.5Z"/><path d="M70.5,65.375h-13a8.25,8.25,0,0,0,0,16.5h13a8.25,8.25,0,0,0,0-16.5Zm0,13h-13a4.75,4.75,0,0,1,0-9.5h13a4.75,4.75,0,0,1,0,9.5Z"/></g></svg>
