<?xml version="1.0" encoding="iso-8859-1"?>
<!-- Generator: Adobe Illustrator 19.0.0, SVG Export Plug-In . SVG Version: 6.00 Build 0)  -->
<svg version="1.1" id="Capa_1" xmlns="http://www.w3.org/2000/svg" xmlns:xlink="http://www.w3.org/1999/xlink" x="0px" y="0px"
	 viewBox="0 0 512 512" style="enable-background:new 0 0 512 512;" xml:space="preserve">
<g>
	<g>
		<path d="M415.807,79.646C415.807,35.729,380.078,0,336.161,0H175.839c-43.917,0-79.646,35.729-79.646,79.646
			c0,30.247,16.846,56.811,42.083,70.28c-27.187,39.917-42.083,91.447-42.083,146.155c0,57.249,16.355,111.159,46.055,151.8
			C172.464,489.229,212.861,512,256,512c43.139,0,83.536-22.771,113.752-64.119c29.699-40.641,46.055-94.551,46.055-151.8
			c0-54.731-14.911-106.284-42.12-146.209C398.731,136.436,415.807,110,415.807,79.646z M400.807,296.081
			C400.807,406.868,335.847,497,256,497s-144.807-90.132-144.807-200.919c0-52.902,14.617-102.5,41.244-140.271
			c4.674,1.426,9.541,2.44,14.562,2.995c4.124,0.442,7.824-2.514,8.279-6.631c0.455-4.117-2.514-7.823-6.631-8.279
			c-32.754-3.62-57.454-31.242-57.454-64.25c0-35.646,29-64.646,64.646-64.646h160.322c35.646,0,64.646,29,64.646,64.646
			c0,35.646-29,64.645-64.646,64.645H199.887c-4.143,0-7.5,3.357-7.5,7.5s3.357,7.5,7.5,7.5h136.274
			c8.134,0,15.985-1.232,23.382-3.508C386.182,193.556,400.807,243.169,400.807,296.081z"/>
	</g>
</g>
<g>
	<g>
		<path d="M379.08,246.566c-0.784-4.067-4.717-6.735-8.784-5.944c-4.067,0.784-6.729,4.717-5.944,8.784
			c2.913,15.109,4.39,30.813,4.39,46.674c0,93.106-50.576,168.854-112.742,168.854S143.258,389.186,143.258,296.08
			c0-29.219,5.098-58.026,14.743-83.308c4.963-13.012,16.992-21.419,30.646-21.419h134.707c13.653,0,25.683,8.407,30.647,21.423
			c0.699,1.831,1.387,3.713,2.042,5.594c1.362,3.91,5.636,5.979,9.55,4.614c3.912-1.362,5.978-5.639,4.614-9.55
			c-0.704-2.021-1.442-4.043-2.192-6.008c-7.201-18.876-24.731-31.073-44.661-31.073H188.646v0.001
			c-19.93,0-37.46,12.197-44.661,31.073c-10.289,26.97-15.728,57.626-15.728,88.653c0,48.598,12.97,94.385,36.521,128.927
			c24.15,35.421,56.547,54.928,91.221,54.928c34.674,0,67.07-19.507,91.221-54.928c23.552-34.542,36.521-80.329,36.521-128.927
			C383.741,279.268,382.173,262.609,379.08,246.566z"/>
	</g>
</g>
<g>
	<g>
		<path d="M256,224.451c-21.816,0-39.564,17.749-39.564,39.566c0,21.816,17.748,39.564,39.564,39.564s39.564-17.748,39.564-39.564
			C295.564,242.201,277.816,224.451,256,224.451z M256,288.581c-13.544,0-24.564-11.02-24.564-24.564
			c0-13.546,11.02-24.565,24.564-24.565s24.564,11.019,24.564,24.565C280.564,277.562,269.544,288.581,256,288.581z"/>
	</g>
</g>
<g>
	<g>
		<path d="M256,48.096c-17.397,0-31.549,14.152-31.549,31.549c0,17.396,14.153,31.548,31.549,31.548s31.549-14.152,31.549-31.548
			S273.397,48.096,256,48.096z M256,96.193c-9.125,0-16.549-7.423-16.549-16.548S246.875,63.097,256,63.097
			s16.549,7.424,16.549,16.549S265.125,96.193,256,96.193z"/>
	</g>
</g>
<g>
</g>
<g>
</g>
<g>
</g>
<g>
</g>
<g>
</g>
<g>
</g>
<g>
</g>
<g>
</g>
<g>
</g>
<g>
</g>
<g>
</g>
<g>
</g>
<g>
</g>
<g>
</g>
<g>
</g>
</svg>
